<svg width="24" height="24" viewBox="0 0 24 24" fill="none" xmlns="http://www.w3.org/2000/svg">
<path d="M20.5 6.99783V13C20.5 16.7712 20.5 18.6569 19.3284 19.8284C18.1569 21 16.2712 21 12.5 21H11.5C7.72876 21 5.84315 21 4.67157 19.8284C3.5 18.6569 3.5 16.7712 3.5 13V6.99783M10.5 13.5H13.5C13.9659 13.5 14.1989 13.5 14.3827 13.4239C14.6277 13.3224 14.8224 13.1277 14.9239 12.8827C15 12.6989 15 12.4659 15 12C15 11.5341 15 11.3011 14.9239 11.1173C14.8224 10.8723 14.6277 10.6776 14.3827 10.5761C14.1989 10.5 13.9659 10.5 13.5 10.5H10.5C10.0341 10.5 9.80109 10.5 9.61732 10.5761C9.37229 10.6776 9.17761 10.8723 9.07612 11.1173C9 11.3011 9 11.5341 9 12C9 12.4659 9 12.6989 9.07612 12.8827C9.17761 13.1277 9.37229 13.3224 9.61732 13.4239C9.80109 13.5 10.0341 13.5 10.5 13.5ZM4 7H20C20.9428 7 21.4142 7 21.7071 6.70711C22 6.41421 22 5.94281 22 5C22 4.05719 22 3.58579 21.7071 3.29289C21.4142 3 20.9428 3 20 3H4C3.05719 3 2.58579 3 2.29289 3.29289C2 3.58579 2 4.05719 2 5C2 5.94281 2 6.41421 2.29289 6.70711C2.58579 7 3.05719 7 4 7Z" stroke="currentColor" stroke-width="1.5" stroke-linecap="round"/>
</svg>
