<svg width="24" height="24" viewBox="0 0 24 24" fill="none" xmlns="http://www.w3.org/2000/svg">
<path d="M1.7998 16.2241C1.7998 18.0218 1.8023 19.2755 1.92779 20.2216C2.04976 21.1407 2.27261 21.6278 2.61479 21.9745C2.95697 22.3212 3.43776 22.547 4.34497 22.6705C5.2788 22.7977 6.51634 22.8002 8.29071 22.8002H15.7089C17.4833 22.8002 18.7208 22.7977 19.6546 22.6705C20.5618 22.547 21.0426 22.3212 21.3848 21.9745C21.727 21.6278 21.9499 21.1407 22.0718 20.2216C22.1973 19.2755 22.1998 18.0218 22.1998 16.2241V14.9715C22.1998 13.1739 22.1973 11.9201 22.0718 10.974C21.9499 10.0549 21.727 9.56776 21.3848 9.22109C21.0424 8.87415 20.5617 8.64787 19.6546 8.52385C18.7209 8.39619 17.4833 8.39296 15.7089 8.39296H4.47859C3.2158 8.39296 2.5844 8.39296 2.1921 8.7888C1.7998 9.18464 1.7998 9.82173 1.7998 11.0959V16.2241Z" fill="currentColor"/>
<path d="M16.4149 4.30965C16.2982 3.14615 16.2399 2.5644 16.0032 2.17189C15.6639 1.60938 15.0751 1.24815 14.424 1.20319C13.9697 1.17182 13.431 1.38732 12.3536 1.81831L2.62401 5.71039C2.20078 5.87969 2.32086 6.51421 2.77614 6.51424L14.4391 6.51513C15.0984 6.51518 15.4281 6.51521 15.68 6.40675C16.0409 6.25139 16.316 5.94422 16.4329 5.56636C16.5145 5.30256 16.4813 4.97159 16.4149 4.30965Z" fill="currentColor"/>
</svg>
