<svg width="16" height="16" viewBox="0 0 16 16" fill="none" xmlns="http://www.w3.org/2000/svg">
<path d="M6.33331 13.2665C6.66468 13.2665 6.93331 12.9979 6.93331 12.6665C6.93331 12.3351 6.66468 12.0665 6.33331 12.0665V12.6665V13.2665ZM7.33331 3.33317L7.75758 3.75743C7.8701 3.64491 7.93332 3.49229 7.93331 3.33316C7.93331 3.17402 7.87009 3.0214 7.75756 2.90888L7.33331 3.33317ZM6.09089 1.24238C5.85656 1.00808 5.47666 1.0081 5.24236 1.24242C5.00806 1.47675 5.00808 1.85665 5.2424 2.09095L5.66665 1.66667L6.09089 1.24238ZM5.24238 4.57557C5.00807 4.80989 5.00807 5.18979 5.24238 5.4241C5.4767 5.65841 5.8566 5.65841 6.09091 5.4241L5.66665 4.99984L5.24238 4.57557ZM8.66665 12.6665L8.24238 12.2422C8.00807 12.4766 8.00807 12.8565 8.24238 13.0908L8.66665 12.6665ZM9.90905 14.7574C10.1434 14.9917 10.5233 14.9917 10.7576 14.7574C10.9919 14.5231 10.9919 14.1432 10.7576 13.9089L10.3333 14.3332L9.90905 14.7574ZM9.66665 2.73317C9.33528 2.73317 9.06665 3.0018 9.06665 3.33317C9.06665 3.66454 9.33528 3.93317 9.66665 3.93317V3.33317V2.73317ZM10.7576 11.4241C10.9919 11.1898 10.9919 10.8099 10.7576 10.5756C10.5233 10.3413 10.1434 10.3413 9.90905 10.5756L10.3333 10.9998L10.7576 11.4241ZM6.33331 12.6665V12.0665H6.00016V12.6665V13.2665H6.33331V12.6665ZM5.99998 3.33317V3.93317H7.33331V3.33317V2.73317H5.99998V3.33317ZM7.33331 3.33317L7.75756 2.90888L6.09089 1.24238L5.66665 1.66667L5.2424 2.09095L6.90907 3.75745L7.33331 3.33317ZM1.33331 7.99984H0.733313C0.733313 10.9086 3.0915 13.2665 6.00016 13.2665V12.6665V12.0665C3.75418 12.0665 1.93331 10.2458 1.93331 7.99984H1.33331ZM1.33331 7.99984H1.93331C1.93331 5.75388 3.75402 3.93317 5.99998 3.93317V3.33317V2.73317C3.09128 2.73317 0.733313 5.09114 0.733313 7.99984H1.33331ZM7.33331 3.33317L6.90905 2.90891L5.24238 4.57557L5.66665 4.99984L6.09091 5.4241L7.75758 3.75743L7.33331 3.33317ZM9.99998 12.6665V12.0665H8.66665V12.6665V13.2665H9.99998V12.6665ZM8.66665 12.6665L8.24238 13.0908L9.90905 14.7574L10.3333 14.3332L10.7576 13.9089L9.09091 12.2422L8.66665 12.6665ZM9.66665 3.33317V3.93317H9.99998V3.33317V2.73317H9.66665V3.33317ZM14.6666 7.99984H14.0666C14.0666 10.2458 12.2459 12.0665 9.99998 12.0665V12.6665V13.2665C12.9087 13.2665 15.2666 10.9085 15.2666 7.99984H14.6666ZM14.6666 7.99984H15.2666C15.2666 5.09114 12.9087 2.73317 9.99998 2.73317V3.33317V3.93317C12.2459 3.93317 14.0666 5.75388 14.0666 7.99984H14.6666ZM8.66665 12.6665L9.09091 13.0908L10.7576 11.4241L10.3333 10.9998L9.90905 10.5756L8.24238 12.2422L8.66665 12.6665Z" fill="currentColor"/>
</svg>
