<svg width="20" height="20" viewBox="0 0 20 20" fill="none" xmlns="http://www.w3.org/2000/svg">
<path fill-rule="evenodd" clip-rule="evenodd" d="M9.11136 1.00004C13.5909 1.00015 17.2227 4.63179 17.2227 9.11136C17.2226 10.9906 16.5806 12.7186 15.5078 14.0938L18.7071 17.293C19.0976 17.6835 19.0976 18.3165 18.7071 18.7071C18.3165 19.0976 17.6835 19.0976 17.293 18.7071L14.0938 15.5078C12.7186 16.5806 10.9906 17.2226 9.11136 17.2227C4.63179 17.2227 1.00015 13.5909 1.00003 9.11136C1.00003 4.63172 4.63172 1.00004 9.11136 1.00004ZM9.11136 3.00004C5.73629 3.00004 3.00003 5.73629 3.00003 9.11136C3.00015 12.4863 5.73636 15.2227 9.11136 15.2227C12.4863 15.2226 15.2226 12.4863 15.2227 9.11136C15.2227 5.73636 12.4863 3.00015 9.11136 3.00004Z" fill="currentColor"/>
</svg>
