<svg width="391" height="48" viewBox="0 0 391 48" fill="none" xmlns="http://www.w3.org/2000/svg">
<path d="M25.58 43V28.86H35.72V31.14H28.08V34.46H31.18C31.8733 34.46 32.5333 34.5133 33.16 34.62C33.8 34.7267 34.3667 34.9267 34.86 35.22C35.3533 35.5 35.74 35.9 36.02 36.42C36.3 36.94 36.44 37.62 36.44 38.46C36.44 39.34 36.2867 40.0733 35.98 40.66C35.6867 41.2467 35.2733 41.7133 34.74 42.06C34.22 42.3933 33.62 42.6333 32.94 42.78C32.2733 42.9267 31.5733 43 30.84 43H25.58ZM28.08 40.72H30.8C31.1867 40.72 31.5667 40.6933 31.94 40.64C32.3133 40.5867 32.6533 40.4867 32.96 40.34C33.2667 40.1933 33.5067 39.98 33.68 39.7C33.8667 39.42 33.96 39.0533 33.96 38.6C33.96 38.16 33.8733 37.8067 33.7 37.54C33.54 37.2733 33.3133 37.08 33.02 36.96C32.74 36.8267 32.42 36.74 32.06 36.7C31.7 36.66 31.32 36.64 30.92 36.64H28.08V40.72ZM37.6589 43.02V40.82C37.9522 40.82 38.2056 40.7533 38.4189 40.62C38.6322 40.4733 38.8122 40.28 38.9589 40.04C39.1322 39.7467 39.2589 39.3733 39.3389 38.92C39.4189 38.4667 39.4722 38.0067 39.4989 37.54C39.5389 36.94 39.5656 36.34 39.5789 35.74C39.6056 35.1267 39.6256 34.54 39.6389 33.98C39.6656 33.4067 39.6789 32.9 39.6789 32.46H47.5989V43H45.1589V34.62H41.9389C41.9256 35.06 41.9056 35.5267 41.8789 36.02C41.8656 36.5133 41.8456 37.0133 41.8189 37.52C41.7922 38.0133 41.7456 38.4933 41.6789 38.96C41.6256 39.48 41.5322 40.0067 41.3989 40.54C41.2789 41.0733 41.0656 41.5533 40.7589 41.98C40.4389 42.38 40.0389 42.6533 39.5589 42.8C39.0922 42.9467 38.4589 43.02 37.6589 43.02ZM49.9652 43V32.46H52.4052V39.32C52.4852 39.1733 52.5852 39.0133 52.7052 38.84C52.8385 38.6667 52.9518 38.5267 53.0452 38.42L57.5652 32.46H59.7252V43H57.3052V36.22C57.1985 36.3933 57.0852 36.56 56.9652 36.72C56.8585 36.8667 56.7518 37.0067 56.6452 37.14L52.1852 43H49.9652ZM61.0741 43L64.1741 37.48L61.2941 32.46H63.8541L66.1941 36.68H67.6941V32.46H70.1341V36.68H71.6341L73.9541 32.46H76.5341L73.6341 37.48L76.7341 43H73.9941L71.7541 38.82H70.1341V43H67.6941V38.82H66.0741L63.8141 43H61.0741ZM81.1748 43.14C80.7082 43.14 80.2548 43.0733 79.8148 42.94C79.3882 42.8067 79.0015 42.6133 78.6548 42.36C78.3082 42.0933 78.0348 41.7667 77.8348 41.38C77.6348 40.98 77.5348 40.5133 77.5348 39.98C77.5348 39.3 77.6682 38.7467 77.9348 38.32C78.2015 37.88 78.5615 37.5467 79.0148 37.32C79.4815 37.0933 80.0082 36.94 80.5948 36.86C81.1815 36.7667 81.7948 36.72 82.4348 36.72H84.4948C84.4948 36.2533 84.4215 35.8533 84.2748 35.52C84.1282 35.1733 83.8948 34.9 83.5748 34.7C83.2682 34.5 82.8682 34.4 82.3748 34.4C82.0548 34.4 81.7548 34.44 81.4748 34.52C81.2082 34.5867 80.9748 34.7 80.7748 34.86C80.5882 35.0067 80.4548 35.2 80.3748 35.44H77.8748C77.9682 34.8933 78.1548 34.4267 78.4348 34.04C78.7282 33.64 79.0815 33.3133 79.4948 33.06C79.9215 32.8067 80.3882 32.62 80.8948 32.5C81.4015 32.3667 81.9148 32.3 82.4348 32.3C83.4615 32.3 84.2948 32.5 84.9348 32.9C85.5882 33.3 86.0682 33.8733 86.3748 34.62C86.6815 35.3667 86.8348 36.2667 86.8348 37.32V43H84.6748L84.6148 41.72C84.3215 42.0933 83.9815 42.3867 83.5948 42.6C83.2215 42.8 82.8282 42.94 82.4148 43.02C82.0015 43.1 81.5882 43.14 81.1748 43.14ZM81.7348 41.16C82.2815 41.16 82.7615 41.06 83.1748 40.86C83.5882 40.66 83.9148 40.38 84.1548 40.02C84.3948 39.66 84.5148 39.24 84.5148 38.76V38.44H82.6148C82.2682 38.44 81.9348 38.4533 81.6148 38.48C81.2948 38.4933 81.0082 38.5467 80.7548 38.64C80.5148 38.72 80.3215 38.8467 80.1748 39.02C80.0282 39.1933 79.9548 39.44 79.9548 39.76C79.9548 40.0667 80.0348 40.3267 80.1948 40.54C80.3548 40.74 80.5682 40.8933 80.8348 41C81.1148 41.1067 81.4148 41.16 81.7348 41.16ZM89.1644 43V32.46H91.6044V39.32C91.6844 39.1733 91.7844 39.0133 91.9044 38.84C92.0377 38.6667 92.151 38.5267 92.2444 38.42L96.7644 32.46H98.9244V43H96.5044V36.22C96.3977 36.3933 96.2844 36.56 96.1644 36.72C96.0577 36.8667 95.951 37.0067 95.8444 37.14L91.3844 43H89.1644ZM94.2044 31.38C93.071 31.38 92.1777 31.12 91.5244 30.6C90.8844 30.0667 90.5577 29.28 90.5444 28.24H92.6244C92.6377 28.7333 92.7844 29.0867 93.0644 29.3C93.3577 29.5133 93.7444 29.62 94.2244 29.62C94.7044 29.62 95.0844 29.5133 95.3644 29.3C95.6577 29.0867 95.811 28.7333 95.8244 28.24H97.9044C97.891 28.92 97.731 29.5 97.4244 29.98C97.131 30.4467 96.711 30.8 96.1644 31.04C95.6177 31.2667 94.9644 31.38 94.2044 31.38ZM101.293 43V32.46H103.733V40.84H107.053V32.46H109.493V40.84H112.853V32.46H115.293V43H101.293ZM117.68 43V32.46H120.12V39.32C120.2 39.1733 120.3 39.0133 120.42 38.84C120.553 38.6667 120.667 38.5267 120.76 38.42L125.28 32.46H127.44V43H125.02V36.22C124.913 36.3933 124.8 36.56 124.68 36.72C124.573 36.8667 124.467 37.0067 124.36 37.14L119.9 43H117.68ZM129.809 43V32.46H132.249V39.32C132.329 39.1733 132.429 39.0133 132.549 38.84C132.682 38.6667 132.796 38.5267 132.889 38.42L137.409 32.46H139.569V43H137.149V36.22C137.042 36.3933 136.929 36.56 136.809 36.72C136.702 36.8667 136.596 37.0067 136.489 37.14L132.029 43H129.809ZM134.849 31.38C133.716 31.38 132.822 31.12 132.169 30.6C131.529 30.0667 131.202 29.28 131.189 28.24H133.269C133.282 28.7333 133.429 29.0867 133.709 29.3C134.002 29.5133 134.389 29.62 134.869 29.62C135.349 29.62 135.729 29.5133 136.009 29.3C136.302 29.0867 136.456 28.7333 136.469 28.24H138.549C138.536 28.92 138.376 29.5 138.069 29.98C137.776 30.4467 137.356 30.8 136.809 31.04C136.262 31.2667 135.609 31.38 134.849 31.38Z" fill="#171A1C"/>
<path d="M255.42 41V39.978L258.22 37.556C258.472 37.3413 258.747 37.108 259.046 36.856C259.354 36.5947 259.643 36.3147 259.914 36.016C260.194 35.7173 260.423 35.4 260.6 35.064C260.787 34.7187 260.88 34.3547 260.88 33.972C260.88 33.3747 260.703 32.9173 260.348 32.6C259.993 32.2733 259.517 32.11 258.92 32.11C258.444 32.11 258.029 32.208 257.674 32.404C257.319 32.6 257.086 32.8847 256.974 33.258H255.672C255.765 32.7447 255.975 32.3247 256.302 31.998C256.638 31.662 257.039 31.41 257.506 31.242C257.982 31.074 258.472 30.99 258.976 30.99C259.592 30.99 260.133 31.102 260.6 31.326C261.076 31.55 261.445 31.8767 261.706 32.306C261.977 32.726 262.112 33.244 262.112 33.86C262.112 34.4667 261.995 34.9987 261.762 35.456C261.538 35.9133 261.239 36.3287 260.866 36.702C260.502 37.066 260.11 37.4253 259.69 37.78L257.184 39.894H262.224V41H255.42ZM263.966 36.814V35.722H268.306V36.814H263.966ZM270.28 41V33.622H271.47V39.278C271.535 39.1473 271.624 39.0073 271.736 38.858C271.848 38.6993 271.936 38.578 272.002 38.494L275.572 33.622H276.748V41H275.558V35.344C275.483 35.484 275.399 35.6147 275.306 35.736C275.222 35.8573 275.142 35.9693 275.068 36.072L271.442 41H270.28ZM273.612 32.586C272.874 32.586 272.296 32.4273 271.876 32.11C271.465 31.7927 271.25 31.3307 271.232 30.724H272.324C272.342 31.0507 272.464 31.2887 272.688 31.438C272.921 31.5873 273.234 31.662 273.626 31.662C274.018 31.662 274.326 31.5873 274.55 31.438C274.783 31.2887 274.909 31.0507 274.928 30.724H276.02C276.01 31.1253 275.908 31.466 275.712 31.746C275.516 32.026 275.24 32.236 274.886 32.376C274.531 32.516 274.106 32.586 273.612 32.586ZM282.393 41V33.622H288.511V41H287.321V34.672H283.583V41H282.393ZM289.719 41.014V39.978C289.906 39.978 290.074 39.9407 290.223 39.866C290.372 39.782 290.503 39.6607 290.615 39.502C290.746 39.3153 290.848 39.0447 290.923 38.69C290.998 38.3353 291.049 37.9573 291.077 37.556C291.114 37.108 291.142 36.6693 291.161 36.24C291.18 35.8013 291.194 35.3673 291.203 34.938C291.222 34.5087 291.231 34.07 291.231 33.622H296.355V41H295.165V34.672H292.393C292.384 34.9893 292.37 35.3113 292.351 35.638C292.342 35.9553 292.328 36.2773 292.309 36.604C292.3 36.9213 292.286 37.2433 292.267 37.57C292.258 37.9433 292.22 38.3633 292.155 38.83C292.09 39.2967 291.95 39.7213 291.735 40.104C291.53 40.468 291.278 40.7107 290.979 40.832C290.69 40.9533 290.27 41.014 289.719 41.014ZM300.591 41.084C300.255 41.084 299.928 41.042 299.611 40.958C299.303 40.8647 299.023 40.7293 298.771 40.552C298.528 40.3653 298.332 40.1367 298.183 39.866C298.043 39.586 297.973 39.264 297.973 38.9C297.973 38.48 298.048 38.1253 298.197 37.836C298.356 37.5467 298.566 37.318 298.827 37.15C299.088 36.982 299.392 36.8607 299.737 36.786C300.082 36.7113 300.442 36.674 300.815 36.674H302.985C302.985 36.254 302.924 35.89 302.803 35.582C302.691 35.274 302.504 35.036 302.243 34.868C301.982 34.6907 301.636 34.602 301.207 34.602C300.946 34.602 300.703 34.63 300.479 34.686C300.255 34.742 300.064 34.8307 299.905 34.952C299.746 35.0733 299.63 35.2367 299.555 35.442H298.281C298.346 35.106 298.472 34.8213 298.659 34.588C298.855 34.3453 299.088 34.1493 299.359 34C299.639 33.8413 299.938 33.7247 300.255 33.65C300.572 33.5753 300.89 33.538 301.207 33.538C301.916 33.538 302.486 33.6827 302.915 33.972C303.344 34.252 303.657 34.6533 303.853 35.176C304.049 35.6893 304.147 36.3007 304.147 37.01V41H303.153L303.083 40.062C302.878 40.342 302.63 40.5567 302.341 40.706C302.052 40.8553 301.753 40.9533 301.445 41C301.146 41.056 300.862 41.084 300.591 41.084ZM300.703 40.034C301.17 40.034 301.571 39.9593 301.907 39.81C302.252 39.6513 302.518 39.4227 302.705 39.124C302.892 38.8253 302.985 38.4613 302.985 38.032V37.668H301.683C301.375 37.668 301.072 37.6727 300.773 37.682C300.474 37.6913 300.204 37.7287 299.961 37.794C299.718 37.8593 299.522 37.9713 299.373 38.13C299.233 38.2887 299.163 38.5173 299.163 38.816C299.163 39.096 299.233 39.3247 299.373 39.502C299.522 39.6793 299.714 39.8147 299.947 39.908C300.19 39.992 300.442 40.034 300.703 40.034ZM307.713 41V34.672H305.179V33.622H311.437V34.672H308.903V41H307.713ZM315.691 41.084C314.907 41.084 314.258 40.9253 313.745 40.608C313.231 40.2813 312.849 39.8333 312.597 39.264C312.345 38.6947 312.219 38.046 312.219 37.318C312.219 36.5807 312.349 35.932 312.611 35.372C312.881 34.8027 313.273 34.3547 313.787 34.028C314.3 33.7013 314.93 33.538 315.677 33.538C316.227 33.538 316.708 33.6453 317.119 33.86C317.539 34.0653 317.884 34.3453 318.155 34.7C318.435 35.0547 318.635 35.4513 318.757 35.89C318.887 36.3287 318.943 36.7813 318.925 37.248C318.915 37.332 318.911 37.416 318.911 37.5C318.911 37.584 318.906 37.668 318.897 37.752H313.423C313.46 38.1813 313.567 38.5687 313.745 38.914C313.922 39.2593 314.174 39.5347 314.501 39.74C314.827 39.936 315.233 40.034 315.719 40.034C315.961 40.034 316.204 40.006 316.447 39.95C316.699 39.8847 316.923 39.7773 317.119 39.628C317.324 39.4787 317.469 39.278 317.553 39.026H318.771C318.659 39.502 318.449 39.894 318.141 40.202C317.833 40.5007 317.464 40.7247 317.035 40.874C316.605 41.014 316.157 41.084 315.691 41.084ZM313.451 36.716H317.721C317.711 36.296 317.618 35.9273 317.441 35.61C317.263 35.2927 317.021 35.0453 316.713 34.868C316.414 34.6907 316.055 34.602 315.635 34.602C315.177 34.602 314.79 34.7 314.473 34.896C314.165 35.092 313.927 35.3487 313.759 35.666C313.591 35.9833 313.488 36.3333 313.451 36.716ZM319.645 41L322.039 37.136L319.855 33.622H321.129L323.075 36.814H324.181V33.622H325.371V36.814H326.477L328.423 33.622H329.697L327.513 37.136L329.907 41H328.521L326.603 37.822H325.371V41H324.181V37.822H322.949L321.031 41H319.645Z" fill="#6F787C"/>
<path d="M353.5 33.5L357.5 37.5L353.5 41.5" stroke="#6F787C" stroke-width="1.5" stroke-linecap="round" stroke-linejoin="round"/>
</svg>
