<svg width="24" height="24" viewBox="0 0 24 24" fill="none" xmlns="http://www.w3.org/2000/svg">
<path d="M7 12.1186V12.6356C7 12.9117 7.22386 13.1356 7.5 13.1356H16.5C16.7761 13.1356 17 12.9117 17 12.6356V12.1186C17 10.6127 18.073 9.36154 19.4839 9.11277C19.7603 9.06403 19.993 8.83625 19.9643 8.55705C19.9539 8.4557 19.9405 8.36292 19.9231 8.27421C19.6075 6.66055 18.3671 5.39914 16.7804 5.07816C16.394 5 15.9293 5 15 5H9C8.07069 5 7.60603 5 7.21964 5.07816C5.63288 5.39914 4.39249 6.66055 4.07686 8.27421C4.05951 8.36293 4.04607 8.4557 4.03567 8.55705C4.00702 8.83625 4.23967 9.06404 4.51607 9.11277C5.92701 9.36154 7 10.6127 7 12.1186Z" fill="white"/>
<path d="M18.4444 18.2203H5.55556C5.27849 18.2203 5.00883 18.1881 4.75 18.1271V19.2373C4.75 19.6585 4.41421 20 4 20C3.58579 20 3.25 19.6585 3.25 19.2373V17.3572C2.48508 16.694 2 15.7069 2 14.6045V12.1186C2 10.9954 2.89543 10.0847 4 10.0847C5.10457 10.0847 6 10.9954 6 12.1186V13.339C6 13.7883 6.35817 14.1525 6.8 14.1525H17.2C17.6418 14.1525 18 13.7883 18 13.339V12.1186C18 10.9954 18.8954 10.0847 20 10.0847C21.1046 10.0847 22 10.9954 22 12.1186V14.6045C22 15.7069 21.5149 16.694 20.75 17.3572V19.2373C20.75 19.6585 20.4142 20 20 20C19.5858 20 19.25 19.6585 19.25 19.2373V18.1271C18.9912 18.1881 18.7215 18.2203 18.4444 18.2203Z" fill="white"/>
</svg>
